<svg xmlns="http://www.w3.org/2000/svg" viewBox="0 0 24 24">
  <path fill="#95BF47" d="M15.637 24.001c-.28 0-.558-.08-.805-.232L9.23 20.001H2.999c-.552 0-1-.448-1-1V5c0-.552.448-1 1-1h6.231l5.602-3.768c.247-.152.525-.232.805-.232.28 0 .558.08.805.232L22.77 4H25c.552 0 1 .448 1 1v14c0 .552-.448 1-1 1h-2.23l-5.568 3.768c-.247.152-.525.232-.805.232z"/>
  <path fill="#5E8E3E" d="M15.637 24.001c-.28 0-.558-.08-.805-.232L9.23 20.001H2.999c-.552 0-1-.448-1-1V5c0-.552.448-1 1-1h6.231l5.602-3.768c.247-.152.525-.232.805-.232.28 0 .558.08.805.232L22.77 4H25c.552 0 1 .448 1 1v14c0 .552-.448 1-1 1h-2.23l-5.568 3.768c-.247.152-.525.232-.805.232z"/>
  <path fill="#FFFFFF" d="M12.5 12.5c0-1.381-1.119-2.5-2.5-2.5s-2.5 1.119-2.5 2.5 1.119 2.5 2.5 2.5 2.5-1.119 2.5-2.5z"/>
</svg>
